<svg xmlns="http://www.w3.org/2000/svg" width="96" height="85" viewBox="0 0 96 85"><g data-name="Group 11650" transform="translate(-450 -411)"><g data-name="Path 4817" fill="#e5ebef"><path d="M528.225 485.5h-68.45c-.703 0-1.275-.57-1.275-1.272v-67.456c0-.701.572-1.272 1.275-1.272h68.45c.703 0 1.275.57 1.275 1.272v67.456c0 .701-.572 1.272-1.275 1.272z"/><path d="M460 417v67h68v-67h-68m-.225-3h68.45a2.774 2.774 0 0 1 2.775 2.772v67.456a2.774 2.774 0 0 1-2.775 2.772h-68.45a2.774 2.774 0 0 1-2.775-2.772v-67.456a2.774 2.774 0 0 1 2.775-2.772z"/></g><path data-name="Rectangle 10098" fill="#fff" d="M457 430h74v3h-74z"/><path data-name="Rectangle 10099" fill="#fff" d="M457 449h74v3h-74z"/><path data-name="Rectangle 10100" fill="#fff" d="M457 468h74v3h-74z"/><path data-name="Rectangle 10102" fill="#fff" d="M508 411v79h-3v-79z"/><path data-name="Rectangle 10103" fill="#fff" d="M483 411v79h-3v-79z"/><g data-name="Rectangle 10104" fill="#e6f7ff" stroke="#2ba0dd" stroke-width="3"><path stroke="none" d="M450 433h88v16h-88z"/><path fill="none" d="M451.5 434.5h85v13h-85z"/></g><circle data-name="Ellipse 1677" cx="15.5" cy="15.5" r="15.5" transform="translate(515 465)" fill="#58c382"/><path data-name="Rectangle 10105" fill="#fff" d="M524 479h13v3h-13z"/><path data-name="Path 4816" d="M532 474v13h-3v-13z" fill="#fff"/></g></svg>