<svg xmlns="http://www.w3.org/2000/svg" width="97.949" height="86.206" viewBox="0 0 97.949 86.206"><g data-name="Group 11652"><g data-name="Path 4817" fill="#e5ebef"><path d="M78.225 74.5H9.775c-.703 0-1.275-.57-1.275-1.272V5.772c0-.701.572-1.272 1.275-1.272h68.45c.703 0 1.275.57 1.275 1.272v67.456c0 .701-.572 1.272-1.275 1.272z"/><path d="M10 6v67h68V6H10m-.225-3h68.45A2.774 2.774 0 0 1 81 5.772v67.456A2.774 2.774 0 0 1 78.225 76H9.775A2.774 2.774 0 0 1 7 73.228V5.772A2.774 2.774 0 0 1 9.775 3z"/></g><path data-name="Rectangle 10098" fill="#fff" d="M7 19h74v3H7z"/><path data-name="Rectangle 10099" fill="#fff" d="M7 38h74v3H7z"/><path data-name="Rectangle 10100" fill="#fff" d="M7 57h74v3H7z"/><path data-name="Rectangle 10102" fill="#fff" d="M58 0v79h-3V0z"/><path data-name="Rectangle 10103" fill="#fff" d="M33 0v79h-3V0z"/><g data-name="Rectangle 10104" fill="#e6f7ff" stroke="#2ba0dd" stroke-width="3"><path stroke="none" d="M0 22h88v16H0z"/><path fill="none" d="M1.5 23.5h85v13h-85z"/></g><g data-name="Rectangle 10112" fill="#e6f7ff" stroke="#2ba0dd" stroke-width="3"><path stroke="none" d="M0 41h88v16H0z"/><path fill="none" d="M1.5 42.5h85v13h-85z"/></g><path data-name="Path 19138" d="M95.473 75.061a.771.771 0 0 0 .656-.676.787.787 0 0 0-.335-.866L80.06 62.585a.757.757 0 0 0-.906.01.77.77 0 0 0-.36.857l3.847 19.786a.813.813 0 0 0 .659.687.7.7 0 0 0 .838-.357l3.207-4.874 3.593 5.462a.862.862 0 0 0 .55.37.694.694 0 0 0 .598-.115l2.061-1.451a.862.862 0 0 0 .37-.55.8.8 0 0 0-.124-.644l-3.796-5.757z" fill="#4c5966"/><path data-name="Line 15" fill="none" stroke="#4c5966" stroke-linecap="round" stroke-width="3" d="M71.5 67.5h-4"/><path data-name="Line 16" fill="none" stroke="#4c5966" stroke-linecap="round" stroke-width="3" d="M75.5 58.5l-3-4"/><path data-name="Line 17" fill="none" stroke="#4c5966" stroke-linecap="round" stroke-width="3" d="M86.5 57.5l2-4"/></g></svg>