<svg xmlns="http://www.w3.org/2000/svg" width="15.077" height="15.013" viewBox="0 0 15.077 15.013"><g fill="#415364"><path data-name="Icon Text" d="M13.858.5H1.172a.657.657 0 0 0-.464 1.12l5.057 5.058v5.634a.656.656 0 0 0 .28.538l2.187 1.531a.657.657 0 0 0 1.033-.538V6.678l5.057-5.058A.657.657 0 0 0 13.858.5z" stroke="rgba(0,0,0,0)" stroke-miterlimit="10"/><path data-name="Icon Text" d="M13.525 11.812l1.422-1.421a.447.447 0 0 0 0-.632l-.316-.316a.447.447 0 0 0-.632 0l-1.422 1.422-1.421-1.422a.447.447 0 0 0-.632 0l-.316.316a.447.447 0 0 0 0 .632l1.421 1.421-1.421 1.422a.447.447 0 0 0 0 .632l.316.316a.447.447 0 0 0 .632 0l1.421-1.422 1.422 1.422a.447.447 0 0 0 .632 0l.316-.316a.447.447 0 0 0 0-.632z"/></g></svg>