<svg xmlns="http://www.w3.org/2000/svg" width="292" height="174" viewBox="0 0 292 174"><path data-name="Path 19247" d="M146 158.115c80.633 0 146 3.556 146 7.942s-65.366 7.942-146 7.942-146-3.555-146-7.942 65.366-7.942 146-7.942z" fill="#f5f5f6"/><g data-name="Group 20428"><path data-name="Path 19231" d="M101.089 152.928H0V67.412l50.538-32.093 50.551 32.093z" fill="#ffc727"/><path data-name="Path 19232" d="M101.089 152.928H0V67.412l50.538-32.093 50.551 32.093z" opacity=".2"/><g data-name="Group 20426"><g data-name="Group 20422"><path data-name="Rectangle 28647" fill="#fff" stroke="#dbdbdb" stroke-miterlimit="10" stroke-width=".75" d="M5.701 31.252H95.39v115.133H5.701z"/></g><g data-name="Group 20423" fill="none" stroke="#ffc727" stroke-miterlimit="10"><path data-name="Path 19233" d="M91.786 102.285v40.372H70.67"/><path data-name="Path 19234" d="M9.303 75.35V34.977h21.116"/></g><g data-name="Group 20424" fill="none" stroke="#ffc727" stroke-miterlimit="10"><path data-name="Path 19235" d="M50.598 34.977h41.188v40.372"/><path data-name="Path 19236" d="M50.487 142.659H9.303V95.595"/></g><g data-name="Group 20425" fill="#d5dbe4"><path data-name="Rectangle 28648" d="M18.607 60.851h64.156v.592H18.607z"/><path data-name="Rectangle 28649" d="M18.607 64.708h64.156v.592H18.607z"/><path data-name="Rectangle 28650" d="M18.607 68.565h64.156v.592H18.607z"/><path data-name="Rectangle 28651" d="M18.607 49.338h64.156v.592H18.607z"/><path data-name="Rectangle 28652" d="M18.607 53.195h64.156v.592H18.607z"/><path data-name="Rectangle 28653" d="M18.607 57.052h64.156v.592H18.607z"/><path data-name="Rectangle 28654" d="M18.607 72.422h64.156v.592H18.607z"/><path data-name="Rectangle 28655" d="M18.607 76.279h64.156v.592H18.607z"/><path data-name="Rectangle 28656" d="M28.18 80.136h45.009v.592H28.18z"/><path data-name="Rectangle 28657" d="M18.607 87.849h64.156v.592H18.607z"/><path data-name="Rectangle 28658" d="M18.607 91.706h64.156v.592H18.607z"/><path data-name="Rectangle 28659" d="M18.607 95.563h64.156v.592H18.607z"/><path data-name="Rectangle 28660" d="M18.607 99.42h64.156v.592H18.607z"/><path data-name="Rectangle 28661" d="M18.607 103.277h64.156v.592H18.607z"/></g></g><path data-name="Path 19237" d="M101.089 88.818v64.11H0v-64.11c4.342 2.46 8.608 5.04 12.9 7.561 4.281 2.565 8.562 5.131 12.813 7.743q7.1 4.327 14.194 8.774c.045-.03.106-.061.151-.091-.045.03-.076.076-.121.106q5.306 3.3 10.612 6.634c3.522-2.216 7.059-4.448 10.6-6.634-.046-.03-.076-.076-.122-.106a.734.734 0 0 0 .152.076q7.082-4.418 14.194-8.775 6.376-3.894 12.8-7.727c4.31-2.521 8.576-5.101 12.916-7.561z" fill="#ffc727"/><g data-name="Group 20427" opacity=".2"><path data-name="Path 19238" d="M101.089 88.818c-4.083 2.87-8.243 5.617-12.357 8.441q-6.216 4.144-12.479 8.258-6.536 4.281-13.1 8.487c-.136.091-.258.182-.395.273q-5.807 3.711-11.644 7.423l-.577.349-.562-.349q-5.829-3.711-11.629-7.439a6.163 6.163 0 0 1-.41-.258q-6.581-4.213-13.117-8.5c-4.16-2.717-8.319-5.48-12.464-8.243-4.114-2.824-8.274-5.571-12.358-8.441 4.342 2.46 8.608 5.04 12.9 7.561 4.281 2.565 8.562 5.131 12.813 7.743q7.1 4.327 14.194 8.774c.015 0 .015 0 .03.015q5.306 3.3 10.612 6.634c3.522-2.216 7.059-4.448 10.6-6.634.015-.03.015-.03.03-.03q7.082-4.418 14.194-8.775 6.376-3.894 12.8-7.727c4.313-2.522 8.579-5.102 12.919-7.562z"/><path data-name="Path 19239" d="M40.063 112.804c-.045.03-.076.076-.121.106-.531.456-1.062.911-1.594 1.351a177.743 177.743 0 0 1-7.773 6.179c-3.219 2.46-6.513 4.813-9.823 7.15-3.325 2.292-6.664 4.569-10.08 6.756s-6.862 4.327-10.43 6.285c3.067-2.687 6.255-5.191 9.473-7.635 3.234-2.46 6.527-4.813 9.822-7.15 3.34-2.308 6.68-4.585 10.1-6.771 2.717-1.746 5.48-3.461 8.3-5.07a81.71 81.71 0 0 1 1.974-1.109c.046-.031.107-.062.152-.092z"/><path data-name="Path 19240" d="M100.849 140.631c-3.568-1.958-7.029-4.1-10.43-6.285-3.416-2.187-6.756-4.463-10.1-6.756-3.31-2.338-6.6-4.691-9.822-7.15-2.627-1.988-5.223-4.023-7.743-6.164-.547-.456-1.078-.911-1.609-1.366-.046-.03-.076-.076-.122-.106a.734.734 0 0 0 .152.076c.668.379 1.321.743 1.974 1.123 2.823 1.609 5.571 3.325 8.3 5.07 3.416 2.186 6.756 4.463 10.08 6.771 3.309 2.338 6.6 4.691 9.823 7.15 3.241 2.445 6.43 4.95 9.497 7.637z"/></g></g><g data-name="Group 20429"><path data-name="Path 19231" d="M291.998 152.928H190.909V67.412l50.538-32.093 50.551 32.093z" fill="#ffc727"/><path data-name="Path 19232" d="M291.998 152.928H190.909V67.412l50.538-32.093 50.551 32.093z" opacity=".2"/><g data-name="Group 20426"><g data-name="Group 20422"><path data-name="Rectangle 28647" fill="#fff" stroke="#dbdbdb" stroke-miterlimit="10" stroke-width=".75" d="M196.61 31.252h89.689v115.133H196.61z"/></g><g data-name="Group 20423" fill="none" stroke="#ffc727" stroke-miterlimit="10"><path data-name="Path 19233" d="M282.695 102.285v40.372h-21.116"/><path data-name="Path 19234" d="M200.212 75.35V34.977h21.116"/></g><g data-name="Group 20424" fill="none" stroke="#ffc727" stroke-miterlimit="10"><path data-name="Path 19235" d="M241.507 34.977h41.188v40.372"/><path data-name="Path 19236" d="M241.396 142.659h-41.184V95.595"/></g><g data-name="Group 20425" fill="#d5dbe4"><path data-name="Rectangle 28648" d="M209.516 60.851h64.156v.592h-64.156z"/><path data-name="Rectangle 28649" d="M209.516 64.708h64.156v.592h-64.156z"/><path data-name="Rectangle 28650" d="M209.516 68.565h64.156v.592h-64.156z"/><path data-name="Rectangle 28651" d="M209.516 49.338h64.156v.592h-64.156z"/><path data-name="Rectangle 28652" d="M209.516 53.195h64.156v.592h-64.156z"/><path data-name="Rectangle 28653" d="M209.516 57.052h64.156v.592h-64.156z"/><path data-name="Rectangle 28654" d="M209.516 72.422h64.156v.592h-64.156z"/><path data-name="Rectangle 28655" d="M209.516 76.279h64.156v.592h-64.156z"/><path data-name="Rectangle 28656" d="M219.089 80.136h45.009v.592h-45.009z"/><path data-name="Rectangle 28657" d="M209.516 87.849h64.156v.592h-64.156z"/><path data-name="Rectangle 28658" d="M209.516 91.706h64.156v.592h-64.156z"/><path data-name="Rectangle 28659" d="M209.516 95.563h64.156v.592h-64.156z"/><path data-name="Rectangle 28660" d="M209.516 99.42h64.156v.592h-64.156z"/><path data-name="Rectangle 28661" d="M209.516 103.277h64.156v.592h-64.156z"/></g></g><path data-name="Path 19237" d="M291.998 88.818v64.11H190.909v-64.11c4.342 2.46 8.608 5.04 12.9 7.561 4.281 2.565 8.562 5.131 12.813 7.743q7.1 4.327 14.194 8.774c.045-.03.106-.061.151-.091-.045.03-.076.076-.121.106q5.306 3.3 10.612 6.634c3.522-2.216 7.059-4.448 10.6-6.634-.046-.03-.076-.076-.122-.106a.734.734 0 0 0 .152.076q7.082-4.418 14.194-8.775 6.376-3.894 12.8-7.727c4.31-2.521 8.576-5.101 12.916-7.561z" fill="#ffc727"/><g data-name="Group 20427" opacity=".2"><path data-name="Path 19238" d="M291.998 88.818c-4.083 2.87-8.243 5.617-12.357 8.441q-6.216 4.144-12.479 8.258-6.536 4.281-13.1 8.487c-.136.091-.258.182-.395.273q-5.807 3.711-11.644 7.423l-.577.349-.562-.349q-5.829-3.711-11.629-7.439a6.163 6.163 0 0 1-.41-.258q-6.581-4.213-13.117-8.5c-4.16-2.717-8.319-5.48-12.464-8.243-4.114-2.824-8.274-5.571-12.358-8.441 4.342 2.46 8.608 5.04 12.9 7.561 4.281 2.565 8.562 5.131 12.813 7.743q7.1 4.327 14.194 8.774c.015 0 .015 0 .03.015q5.306 3.3 10.612 6.634c3.522-2.216 7.059-4.448 10.6-6.634.015-.03.015-.03.03-.03q7.082-4.418 14.194-8.775 6.376-3.894 12.8-7.727c4.313-2.522 8.579-5.102 12.919-7.562z"/><path data-name="Path 19239" d="M230.972 112.804c-.045.03-.076.076-.121.106-.531.456-1.062.911-1.594 1.351a177.743 177.743 0 0 1-7.773 6.179c-3.219 2.46-6.513 4.813-9.823 7.15-3.325 2.292-6.664 4.569-10.08 6.756s-6.862 4.327-10.43 6.285c3.067-2.687 6.255-5.191 9.473-7.635 3.234-2.46 6.527-4.813 9.822-7.15 3.34-2.308 6.68-4.585 10.1-6.771 2.717-1.746 5.48-3.461 8.3-5.07a81.71 81.71 0 0 1 1.974-1.109c.046-.031.107-.062.152-.092z"/><path data-name="Path 19240" d="M291.758 140.631c-3.568-1.958-7.029-4.1-10.43-6.285-3.416-2.187-6.756-4.463-10.1-6.756-3.31-2.338-6.6-4.691-9.822-7.15-2.627-1.988-5.223-4.023-7.743-6.164-.547-.456-1.078-.911-1.609-1.366-.046-.03-.076-.076-.122-.106a.734.734 0 0 0 .152.076c.668.379 1.321.743 1.974 1.123 2.823 1.609 5.571 3.325 8.3 5.07 3.416 2.186 6.756 4.463 10.08 6.771 3.309 2.338 6.6 4.691 9.823 7.15 3.241 2.445 6.43 4.95 9.497 7.637z"/></g></g><g data-name="Group 20432"><g data-name="Group 20431"><path data-name="Path 19241" d="M52.57 70.463C5.737 114.29 38.192 152.694 91.524 124.78c46.917-24.556 56.1-71.368 140.544-104.446" fill="none" stroke="#263238" stroke-miterlimit="10" stroke-width=".75" stroke-dasharray="4 5"/><g data-name="Group 20430"><path data-name="Path 19242" d="M228.729 11.272l-5.234 14.375 10.988-8.581 42.01-15.236z" fill="#ffc727"/><path data-name="Path 19243" d="M228.729 11.272l-5.234 14.375 10.988-8.581 42.01-15.236z" opacity=".1"/><path data-name="Path 19244" d="M235.892 20.416l-12.4 5.232 10.988-8.581z" fill="#263238"/><path data-name="Path 19245" d="M234.482 17.066L276.493 1.83l-34.458 33.626z" fill="#ffc727"/><path data-name="Path 19246" d="M228.729 11.271L211.266 0l65.223 1.83z" fill="#ffc727"/></g></g></g></svg>