<svg xmlns="http://www.w3.org/2000/svg" width="60" height="60" viewBox="0 0 60 60">
  <g id="fly-online" transform="translate(0)">
    <path id="Path_19517" data-name="Path 19517" d="M0,0H60V60H0Z" fill="none"/>
    <g id="Group_26654" data-name="Group 26654" transform="translate(-9.33 2.411)">
      <g id="Group_26653" data-name="Group 26653" transform="translate(9.33 8.197)">
        <path id="Path_19518" data-name="Path 19518" d="M180.489,47.863v0l0,0Z" transform="translate(-133.855 -37.055)" fill="#2ba0dd"/>
        <path id="Path_19519" data-name="Path 19519" d="M56.5,20.717c-.017,0-.035-.122-.053-.122-.147-.5-.312-.975-.486-1.587-.008.011-.017.075-.024.057a6.412,6.412,0,0,0-.377-.781c-.005-.01-.012.011-.017,0A17.836,17.836,0,0,0,22.461,20.7,13.311,13.311,0,1,0,29.39,45.474l.03-.013c3.5-1.751,7.915-7.338,10.261-10.986l.4.563,1.165,1.438.647-1.2-.641-3.088L43.6,29.194l3.782,6.848.986-1.21-2.082-8.906s1.228-1.416,1.809-2.093c.757-.88.909-1.578.135-2.162-.82-.618-1.469.069-2.165.8-.3.319-1.787,2.189-1.787,2.189l-9.13.509L34.5,26.218l7.554,1.941-2.127,2.988-3.208.362-.766.978,2.592,1.086a29.591,29.591,0,0,1-7.736,7.778l-.008-.006c-.014.014-.032.027-.046.041a14.291,14.291,0,0,1-3.6,1.711,20.258,20.258,0,0,1-4.514.493,9.575,9.575,0,0,1-.923-19.106s.45,5.45,4.6,6.624a14.02,14.02,0,0,1-.94-5.059c0-.4.021-.8.054-1.195a14.005,14.005,0,0,1,.8-3.652q-.43-.121-.87-.214.44.093.87.214A14.1,14.1,0,0,1,51.985,19.54,24.173,24.173,0,0,1,53.043,22.2a14.03,14.03,0,0,1,.482,2.573,9.565,9.565,0,1,1-6.289,13.052,14.072,14.072,0,0,1-7.755,2.332l-.156,0a11.944,11.944,0,0,1-2.591,3.519,17.689,17.689,0,0,0,9.193-.994A13.3,13.3,0,1,0,56.5,20.717Z" transform="translate(-9.33 -8.197)" fill="#2ba0dd"/>
      </g>
    </g>
  </g>
</svg>
