<svg xmlns="http://www.w3.org/2000/svg" width="99.567" height="33.149" viewBox="0 0 99.567 33.149">
  <g id="Group_20460" data-name="Group 20460" transform="translate(-9.33 -8.197)">
    <g id="Group_20462" data-name="Group 20462" transform="translate(9.33 8.197)">
      <g id="Group_20461" data-name="Group 20461" transform="translate(0 0)">
        <path id="Path_19287" data-name="Path 19287" d="M180.489,47.863v0l0,0Z" transform="translate(-140.98 -38.707)" fill="#fff"/>
        <path id="Path_19288" data-name="Path 19288" d="M49.3,18.8c-.015,0-.03-.1-.045-.1-.125-.421-.264-.826-.412-1.344-.007.009-.014.064-.021.048a5.431,5.431,0,0,0-.319-.662c0-.008-.01.009-.015,0a15.111,15.111,0,0,0-28.03,2.048,11.277,11.277,0,1,0,5.87,20.986l.025-.011c2.962-1.484,6.705-6.217,8.693-9.308l.335.477.987,1.219.548-1.018-.543-2.616,1.993-2.536,3.2,5.8.835-1.025-1.764-7.545s1.04-1.2,1.533-1.773c.641-.745.77-1.337.114-1.832-.694-.524-1.245.059-1.834.679-.257.271-1.514,1.855-1.514,1.855l-7.735.431-.552.888,6.4,1.644-1.8,2.531-2.718.307-.649.829,2.2.92a25.07,25.07,0,0,1-6.554,6.59l-.007,0c-.012.012-.027.023-.039.035a12.107,12.107,0,0,1-3.049,1.449,17.162,17.162,0,0,1-3.824.418A8.112,8.112,0,0,1,19.824,22s.381,4.617,3.9,5.612a11.878,11.878,0,0,1-.8-4.286c0-.341.018-.678.046-1.012a11.865,11.865,0,0,1,.681-3.094q-.364-.1-.737-.181.373.079.737.181a11.944,11.944,0,0,1,21.815-1.409,20.48,20.48,0,0,1,.9,2.252,11.886,11.886,0,0,1,.408,2.18A8.1,8.1,0,1,1,41.444,33.3a11.922,11.922,0,0,1-6.57,1.975l-.132,0a10.118,10.118,0,0,1-2.195,2.981,14.986,14.986,0,0,0,7.789-.842A11.272,11.272,0,1,0,49.3,18.8Z" transform="translate(-9.33 -8.197)" fill="#fff"/>
      </g>
    </g>
    <g id="Group_20465" data-name="Group 20465" transform="translate(66.746 12.231)">
      <g id="Group_20463" data-name="Group 20463" transform="translate(0 10.196)">
        <path id="Path_19289" data-name="Path 19289" d="M261.573,88.765h-3.506V69.847h11.961v2.924h-8.454v5.169h6.653v2.841h-6.653Z" transform="translate(-258.067 -69.847)" fill="#fff"/>
        <path id="Path_19290" data-name="Path 19290" d="M336.515,88.765H324.873V69.847h3.59V85.674h8.052Z" transform="translate(-309.452 -69.847)" fill="#fff"/>
        <path id="Path_19291" data-name="Path 19291" d="M380.6,88.765h-3.617V80.782l-6.445-10.935h4.13l4.49,7.8,4.3-7.8h3.271L380.6,80.782Z" transform="translate(-344.58 -69.847)" fill="#fff"/>
      </g>
      <g id="Group_20464" data-name="Group 20464">
        <path id="Path_19292" data-name="Path 19292" d="M292.764,36.2h-.355l-.373-1.032h-1.507L290.15,36.2H289.8l1.393-3.582h.191Zm-.881-1.378-.6-1.531-.612,1.531Z" transform="translate(-282.471 -31.012)" fill="#fff"/>
        <path id="Path_19293" data-name="Path 19293" d="M310.25,37.348l-1.181,2.665-1.175-2.665h.375l.8,1.817.808-1.817Z" transform="translate(-296.392 -34.653)" fill="#fff"/>
        <path id="Path_19294" data-name="Path 19294" d="M326.822,38.58h-2.113q.091.847.832.847a.952.952,0,0,0,.519-.146.823.823,0,0,0,.34-.416l.325.191a1.229,1.229,0,0,1-1.184.726,1.2,1.2,0,0,1-.9-.354,1.255,1.255,0,0,1-.343-.912,1.305,1.305,0,0,1,.344-.935,1.2,1.2,0,0,1,.912-.364,1.182,1.182,0,0,1,.941.386,1.481,1.481,0,0,1,.328.977m-.379-.346a.839.839,0,0,0-.889-.665.781.781,0,0,0-.844.665Z" transform="translate(-309.008 -34.553)" fill="#fff"/>
        <path id="Path_19295" data-name="Path 19295" d="M344.3,33.528a.875.875,0,0,1-.295.687,1.019,1.019,0,0,1-.711.252h-.571v1.718h-.343V32.6h.914a1.04,1.04,0,0,1,.714.243.859.859,0,0,1,.292.684m-.343,0a.525.525,0,0,0-.2-.439.734.734,0,0,0-.47-.142h-.565v1.175h.571a.7.7,0,0,0,.469-.162.535.535,0,0,0,.193-.431" transform="translate(-322.919 -31.002)" fill="#fff"/>
        <path id="Path_19296" data-name="Path 19296" d="M357.06,38.5a1.247,1.247,0,0,1-.36.929,1.4,1.4,0,0,1-1.864,0,1.369,1.369,0,0,1,0-1.853,1.4,1.4,0,0,1,1.864,0,1.239,1.239,0,0,1,.363.924m-.379,0a.92.92,0,0,0-.252-.671.965.965,0,0,0-1.319,0,1,1,0,0,0,0,1.336.973.973,0,0,0,1.324,0,.92.92,0,0,0,.252-.669" transform="translate(-332.22 -34.553)" fill="#fff"/>
        <path id="Path_19297" data-name="Path 19297" d="M372.492,37.105h-.34v-2.14h-.47v-.34h.81Zm.082-3.072q0,.234-.249.234t-.258-.24q0-.243.252-.243a.223.223,0,0,1,.255.249" transform="translate(-345.456 -31.912)" fill="#fff"/>
        <path id="Path_19298" data-name="Path 19298" d="M385.922,39.74h-.343V38.307q0-.735-.625-.735a.629.629,0,0,0-.492.2.743.743,0,0,0-.176.517V39.74h-.343V37.247h.343v.2a1,1,0,0,1,.668-.228q.968,0,.968,1.084Z" transform="translate(-354.887 -34.553)" fill="#fff"/>
        <path id="Path_19299" data-name="Path 19299" d="M401.9,35.88a1.039,1.039,0,0,1-.772.325,1.069,1.069,0,0,1-.775-.32,1.029,1.029,0,0,1-.324-.77V34.083H399.7v-.352h.328V32.614h.349v1.117h.565v.352h-.565v1.032a.746.746,0,0,0,.748.75.712.712,0,0,0,.53-.225Z" transform="translate(-367.008 -31.012)" fill="#fff"/>
        <path id="Path_19300" data-name="Path 19300" d="M409.786,32a.3.3,0,1,1-.089-.214.291.291,0,0,1,.089.214m-.067,0a.23.23,0,0,0-.069-.168.234.234,0,0,0-.333,0,.238.238,0,0,0,0,.335.234.234,0,0,0,.333,0,.23.23,0,0,0,.069-.168m-.072.143h-.091l-.088-.111h-.029v.111h-.071v-.3h.11a.387.387,0,0,1,.049,0,.1.1,0,0,1,.037.013.077.077,0,0,1,.03.028.082.082,0,0,1,.009.041.081.081,0,0,1-.018.055.125.125,0,0,1-.046.033Zm-.125-.212a.037.037,0,0,0,0-.017.029.029,0,0,0-.013-.013.05.05,0,0,0-.018-.006h-.048v.085h.017a.152.152,0,0,0,.03,0,.044.044,0,0,0,.021-.009.035.035,0,0,0,.011-.014.054.054,0,0,0,0-.022" transform="translate(-374.299 -30.305)" fill="#fff"/>
        <path id="Path_19301" data-name="Path 19301" d="M259.618,29.895a1.117,1.117,0,1,1,1.6,1.009h2.2l-2.676-5.23-2.677,5.23h2.188a1.118,1.118,0,0,1-.636-1.009" transform="translate(-258.067 -25.674)" fill="#e8271f" fill-rule="evenodd"/>
        <path id="Path_19302" data-name="Path 19302" d="M275.086,27.01a.782.782,0,1,1-.782-.782.782.782,0,0,1,.782.782" transform="translate(-269.954 -26.1)" fill="#e8271f" fill-rule="evenodd"/>
      </g>
    </g>
  </g>
</svg>
