<svg xmlns="http://www.w3.org/2000/svg" width="15.875" height="14" viewBox="0 0 15.875 14"><g data-name="Group 19875" fill="#415364"><path data-name="Subtraction 1" d="M6.188 13.5a15.091 15.091 0 0 1-2.857-.254 7.268 7.268 0 0 1-2.069-.672c-.505-.279-.761-.591-.761-.927V9.032a6.911 6.911 0 0 0 2.462.94 16 16 0 0 0 3.225.3c.316 0 .63-.008.931-.022a4.017 4.017 0 0 0 3.368 2.6 9.153 9.153 0 0 1-1.443.39 15.088 15.088 0 0 1-2.856.26zm0-4.063a15.089 15.089 0 0 1-2.857-.254 7.268 7.268 0 0 1-2.069-.672C.757 8.232.501 7.92.501 7.584V4.969a6.9 6.9 0 0 0 2.462.94 15.989 15.989 0 0 0 3.225.305c.616 0 1.215-.029 1.781-.086a3.982 3.982 0 0 0-1.093 2.747 4.036 4.036 0 0 0 .037.548c-.248.01-.492.014-.725.014zm0-4.062a15.015 15.015 0 0 1-2.857-.255 7.268 7.268 0 0 1-2.069-.672c-.505-.279-.761-.591-.761-.927V2.353c0-.337.256-.648.761-.926A7.24 7.24 0 0 1 3.331.754a16.2 16.2 0 0 1 5.713 0 7.23 7.23 0 0 1 2.069.673c.506.278.762.59.762.926v1.168c0 .336-.257.648-.762.927a7.263 7.263 0 0 1-2.069.672 15.013 15.013 0 0 1-2.856.255z" stroke="rgba(0,0,0,0)" stroke-miterlimit="10"/><path d="M11.859 5.922a.318.318 0 0 0-.117.266.391.391 0 0 0 .117.266l1.875 1.8H9.25a.362.362 0 0 0-.266.109.362.362 0 0 0-.109.262v.5a.362.362 0 0 0 .109.266.362.362 0 0 0 .266.109h4.484l-1.875 1.8a.391.391 0 0 0-.117.266.318.318 0 0 0 .117.266l.344.343a.362.362 0 0 0 .266.109.362.362 0 0 0 .265-.109l3.032-3.034a.362.362 0 0 0 .109-.266.362.362 0 0 0-.109-.266l-3.032-3.034a.362.362 0 0 0-.266-.109.362.362 0 0 0-.266.109z"/></g></svg>
