<svg xmlns="http://www.w3.org/2000/svg" width="14.875" height="14" viewBox="0 0 14.875 14"><g data-name="Post migration" fill="#415364"><path data-name="Subtraction 2" d="M6.187 13.5a15.073 15.073 0 0 1-2.856-.254 7.314 7.314 0 0 1-2.07-.673c-.505-.278-.761-.59-.761-.927V9.031a6.875 6.875 0 0 0 2.463.94 15.977 15.977 0 0 0 3.224.305c.249 0 .5 0 .734-.014a4.05 4.05 0 0 0-.047.613 4 4 0 0 0 .919 2.551c-.515.05-1.055.074-1.606.074zm0-4.063a15.073 15.073 0 0 1-2.856-.254 7.271 7.271 0 0 1-2.07-.673C.756 8.232.5 7.92.5 7.583V4.968a6.88 6.88 0 0 0 2.463.94 17.192 17.192 0 0 0 6.448 0 6.874 6.874 0 0 0 2.463-.94v1.907h-1a3.979 3.979 0 0 0-3.725 2.536c-.316.018-.64.027-.962.027zm0-4.063a15.073 15.073 0 0 1-2.856-.254 7.274 7.274 0 0 1-2.07-.673C.756 4.169.5 3.858.5 3.52V2.353c0-.338.256-.649.761-.927a7.274 7.274 0 0 1 2.07-.673 16.2 16.2 0 0 1 5.712 0 7.273 7.273 0 0 1 2.07.673c.505.278.761.589.761.927V3.52c0 .338-.256.649-.761.927a7.273 7.273 0 0 1-2.07.673 15.08 15.08 0 0 1-2.856.255z" stroke="rgba(0,0,0,0)" stroke-miterlimit="10"/><path d="M10.914 12.77a.268.268 0 0 0 .211.094.268.268 0 0 0 .211-.094l3.457-3.446a.286.286 0 0 0 .082-.211.286.286 0 0 0-.082-.211l-.434-.422a.261.261 0 0 0-.205-.094.3.3 0 0 0-.217.094l-2.812 2.813L9.813 9.98a.3.3 0 0 0-.217-.094.261.261 0 0 0-.205.094l-.434.422a.286.286 0 0 0-.082.211.286.286 0 0 0 .082.211z"/></g></svg>
