<svg id="service-account" xmlns="http://www.w3.org/2000/svg" width="60" height="60" viewBox="0 0 60 60">
  <rect id="Rectangle_28921" data-name="Rectangle 28921" width="60" height="60" fill="none"/>
  <g id="Group_26573" data-name="Group 26573" transform="translate(4 1)">
    <path id="Rectangle_30796" data-name="Rectangle 30796" d="M4,0H21a4,4,0,0,1,4,4V15a0,0,0,0,1,0,0H0a0,0,0,0,1,0,0V4A4,4,0,0,1,4,0Z" transform="translate(13 6)" fill="#595959"/>
    <path id="Rectangle_30797" data-name="Rectangle 30797" d="M17,0H35A17,17,0,0,1,52,17v0a0,0,0,0,1,0,0H0a0,0,0,0,1,0,0v0A17,17,0,0,1,17,0Z" transform="translate(0 42)" fill="#e1e1e1"/>
    <path id="Path_19511" data-name="Path 19511" d="M-617.279,188.227l-3,11h6Z" transform="translate(643.279 -140.227)" fill="#0099a8"/>
    <path id="Path_19512" data-name="Path 19512" d="M-615.567,190.908h-3l-1.5-4h6Z" transform="translate(643.067 -139.908)" fill="#0099a8"/>
    <rect id="Rectangle_30798" data-name="Rectangle 30798" width="12" height="20" transform="translate(20 27)" fill="#f5bb98"/>
    <rect id="Rectangle_30799" data-name="Rectangle 30799" width="29" height="6" rx="3" transform="translate(11 18)" fill="#f8ccb2"/>
    <rect id="Rectangle_30800" data-name="Rectangle 30800" width="21" height="28" rx="10.5" transform="translate(15 6)" fill="#f8ccb2"/>
    <path id="Path_19513" data-name="Path 19513" d="M-626.514,176.25l-3,3,4,8,5-3Z" transform="translate(646.513 -137.251)" fill="#f2f2f2"/>
    <path id="Path_19514" data-name="Path 19514" d="M-611.586,176.25l3,3-4,8-5-3Z" transform="translate(643.586 -137.251)" fill="#f2f2f2"/>
    <circle id="Ellipse_6771" data-name="Ellipse 6771" cx="7" cy="7" r="7" transform="translate(10)" fill="#595959"/>
    <circle id="Ellipse_6772" data-name="Ellipse 6772" cx="5.5" cy="5.5" r="5.5" transform="translate(21 3)" fill="#595959"/>
    <circle id="Ellipse_6776" data-name="Ellipse 6776" cx="4" cy="4" r="4" transform="translate(19)" fill="#595959"/>
    <circle id="Ellipse_6777" data-name="Ellipse 6777" cx="4" cy="4" r="4" transform="translate(26 1)" fill="#595959"/>
    <circle id="Ellipse_6773" data-name="Ellipse 6773" cx="5" cy="5" r="5" transform="translate(28 4)" fill="#595959"/>
  </g>
  <g id="Group_26575" data-name="Group 26575" transform="translate(40 38)">
    <circle id="Ellipse_6774" data-name="Ellipse 6774" cx="7.5" cy="7.5" r="7.5" fill="#0099a8"/>
    <path id="Path_19515" data-name="Path 19515" d="M8.357-2.964a.618.618,0,0,1,.452.191A.618.618,0,0,1,9-2.321v.643a.618.618,0,0,1-.191.452.618.618,0,0,1-.452.191H5.464V1.857a.618.618,0,0,1-.191.452.618.618,0,0,1-.452.191H4.179a.618.618,0,0,1-.452-.191.618.618,0,0,1-.191-.452V-1.036H.643a.618.618,0,0,1-.452-.191A.618.618,0,0,1,0-1.679v-.643a.618.618,0,0,1,.191-.452.618.618,0,0,1,.452-.191H3.536V-5.857a.618.618,0,0,1,.191-.452A.618.618,0,0,1,4.179-6.5h.643a.618.618,0,0,1,.452.191.618.618,0,0,1,.191.452v2.893Z" transform="translate(3 9.5)" fill="#fff"/>
  </g>
</svg>
