<svg xmlns="http://www.w3.org/2000/svg" viewBox="0 0 32 32"><circle cx="14.385" cy="10.077" r="8.077" fill="#036c70"/><circle cx="23" cy="17.615" r="7" fill="#1a9ba1"/><circle cx="14.923" cy="24.615" r="5.385" fill="#37c6d0"/><path d="M15.824 10H6.932c-.209.3-.4.618-.577.94a8.077 8.077 0 0 0 6.208 7 7.549 7.549 0 0 0 .907.06 7.644 7.644 0 0 0 1.53-.154c.005.094.02.183.029.275.335-.027-1.352-.055-1.03-.121.026.49-.122-.458 0 0-.424-.107 1.381 1.231.923 1.231A5.367 5.367 0 0 0 9.6 24h5.992A1.506 1.506 0 0 0 17 22.646V11.167A1.175 1.175 0 0 0 15.824 10z" opacity=".5"/><rect x="2" y="9" width="14" height="14" rx="1.167" fill="#038387"/><path d="M7.262 15.914a2.414 2.414 0 0 1-.749-.792 2.149 2.149 0 0 1-.261-1.083 2.086 2.086 0 0 1 .485-1.4 2.856 2.856 0 0 1 1.289-.839 5.453 5.453 0 0 1 1.762-.273 6.69 6.69 0 0 1 2.32.325v1.639a3.66 3.66 0 0 0-1.049-.43 5.109 5.109 0 0 0-1.228-.147 2.663 2.663 0 0 0-1.262.267.829.829 0 0 0-.5.758.768.768 0 0 0 .212.537 1.912 1.912 0 0 0 .571.408q.358.178 1.071.473a.987.987 0 0 1 .153.062 8.8 8.8 0 0 1 1.351.666 2.4 2.4 0 0 1 .8.8 2.329 2.329 0 0 1 .288 1.212 2.256 2.256 0 0 1-.454 1.461 2.531 2.531 0 0 1-1.215.816 5.5 5.5 0 0 1-1.731.252 9.135 9.135 0 0 1-1.571-.126 5.41 5.41 0 0 1-1.273-.368V18.4a4.1 4.1 0 0 0 1.289.614 5.032 5.032 0 0 0 1.418.227 2.443 2.443 0 0 0 1.286-.273.863.863 0 0 0 .432-.771.82.82 0 0 0-.242-.589 2.48 2.48 0 0 0-.669-.467q-.428-.215-1.262-.564a7.191 7.191 0 0 1-1.261-.663z" fill="#fff"/></svg>