<svg xmlns="http://www.w3.org/2000/svg" width="64" height="64" viewBox="0 0 64 64"><g transform="translate(0 -.303)"><circle data-name="Ellipse 2574" cx="32" cy="32" r="32" transform="translate(0 .303)" fill="rgba(40,204,116,0.08)"/><circle data-name="Ellipse 2575" cx="26" cy="26" r="26" transform="translate(6 6.303)" fill="rgba(40,204,116,0.16)"/><circle data-name="Ellipse 2744" cx="16" cy="16" r="16" transform="translate(16 16.303)" fill="#fff"/><path data-name="Path 16752" d="M52.245 32.074a19.625 19.625 0 0 0-2.735-10.122 20.457 20.457 0 0 0-7.388-7.388A19.625 19.625 0 0 0 32 11.829a19.625 19.625 0 0 0-10.123 2.735 20.457 20.457 0 0 0-7.388 7.388 19.625 19.625 0 0 0-2.734 10.122 19.625 19.625 0 0 0 2.735 10.122 20.457 20.457 0 0 0 7.388 7.388A19.625 19.625 0 0 0 32 52.319a19.625 19.625 0 0 0 10.122-2.735 20.457 20.457 0 0 0 7.388-7.388 19.625 19.625 0 0 0 2.735-10.122zM29.633 42.768a1.192 1.192 0 0 1-1.8 0l-8.49-8.49a1.192 1.192 0 0 1 0-1.8l1.8-1.878a1.284 1.284 0 0 1 1.878 0l5.714 5.719 12.244-12.245a1.284 1.284 0 0 1 1.878 0l1.8 1.878a1.192 1.192 0 0 1 0 1.8z" fill="#28cc74"/></g></svg>