<svg xmlns="http://www.w3.org/2000/svg" viewBox="0 0 32 32"><path d="M28.65 12h-6.788L21 13.1v7.263C21 22.37 23.015 24 25.5 24s4.5-1.63 4.5-3.641V13.1a1.242 1.242 0 0 0-1.35-1.1z" fill="#5059c9"/><circle cx="26" cy="8" r="3" fill="#5059c9"/><path d="M10 22.755v-9.617A1.138 1.138 0 0 1 11.138 12h10.724A1.138 1.138 0 0 1 23 13.138v9.617A6.245 6.245 0 0 1 16.755 29h-.51A6.245 6.245 0 0 1 10 22.755z" fill="#7b83eb"/><circle cx="17" cy="7" r="4" fill="#7b83eb"/><path d="M10.125 24h4.1C15.756 24 17 23.394 17 21.846V12h-5.846C10.517 12 10 14.517 10 15.154v7.6A6.222 6.222 0 0 0 10.125 24zm6.807-13.007A1.4 1.4 0 0 0 15.6 10h-1.22a3.958 3.958 0 0 0 2.552.993z" opacity=".5"/><rect x="2" y="9" width="14" height="14" rx="1.4" fill="#4b53bc"/><path d="M13.49 13.154h-3.111v7.778H8.823v-7.778H5.712V11.6h7.778z" fill="#fff"/></svg>